<?xml version="1.0" standalone="no"?>
<!DOCTYPE svg PUBLIC "-//W3C//DTD SVG 20010904//EN"
 "http://www.w3.org/TR/2001/REC-SVG-20010904/DTD/svg10.dtd">
<svg version="1.0" xmlns="http://www.w3.org/2000/svg"
 width="74.000000pt" height="74.000000pt" viewBox="0 0 74.000000 74.000000"
 preserveAspectRatio="xMidYMid meet">
<metadata>
Created by potrace 1.11, written by Peter Selinger 2001-2013
</metadata>
<g transform="translate(0.000000,74.000000) scale(0.100000,-0.100000)"
fill="#000000" stroke="none">
<path d="M199 664 l-66 -66 46 -44 c25 -24 49 -44 52 -44 3 0 29 24 56 53 92
96 87 94 123 57 l32 -33 -71 -69 c-39 -38 -71 -72 -71 -76 0 -4 19 -27 43 -50
l43 -42 67 67 67 67 0 123 0 123 -128 0 -127 0 -66 -66z"/>
<path d="M130 217 l0 -217 234 0 234 0 -1 215 c0 118 -2 215 -4 215 -1 0 -52
-50 -113 -110 -97 -97 -114 -109 -128 -98 -9 7 -46 42 -83 78 -37 36 -83 81
-103 99 l-36 35 0 -217z"/>
</g>
</svg>
